{
  "accessors": [
    {
      "bufferView": 2,
      "componentType": 5126,
      "count": 2666,
      "max": [
        29.290533065795898,
        2.6952316761016846,
        29.546846389770508
      ],
      "min": [
        -29.290533065795898,
        -122.61702728271484,
        -44.777458190917969
      ],
      "type": "VEC3"
    },
    {
      "bufferView": 2,
      "byteOffset": 31992,
      "componentType": 5126,
      "count": 2666,
      "max": [
        1,
        0.99997216463088989,
        1
      ],
      "min": [
        -1,
        -1,
        -1
      ],
      "type": "VEC3"
    },
    {
      "bufferView": 3,
      "componentType": 5126,
      "count": 2666,
      "max": [
        1,
        1,
        1,
        1
      ],
      "min": [
        -1,
        -0.99997216463088989,
        -1,
        1
      ],
      "type": "VEC4"
    },
    {
      "bufferView": 1,
      "componentType": 5126,
      "count": 2666,
      "max": [
        0.99553984403610229,
        0.99161851406097412
      ],
      "min": [
        0.0020032366737723351,
        0.0017225523479282856
      ],
      "type": "VEC2"
    },
    {
      "bufferView": 1,
      "byteOffset": 21328,
      "componentType": 5126,
      "count": 2666,
      "max": [
        0.99553984403610229,
        0.99161851406097412
      ],
      "min": [
        0.0020032366737723351,
        0.0017225523479282856
      ],
      "type": "VEC2"
    },
    {
      "bufferView": 1,
      "byteOffset": 42656,
      "componentType": 5126,
      "count": 2666,
      "max": [
        0.99553984403610229,
        0.99161851406097412
      ],
      "min": [
        0.0020032366737723351,
        0.0017225523479282856
      ],
      "type": "VEC2"
    },
    {
      "bufferView": 0,
      "componentType": 5125,
      "count": 4560,
      "max": [
        2665
      ],
      "min": [
        0
      ],
      "type": "SCALAR"
    },
    {
      "bufferView": 2,
      "byteOffset": 63984,
      "componentType": 5126,
      "count": 20,
      "max": [
        1.9326242208480835,
        21.892997741699219,
        5.1210918426513672
      ],
      "min": [
        -1.9326242208480835,
        -8.3433178588165902e-07,
        -7.4913578033447266
      ],
      "type": "VEC3"
    },
    {
      "bufferView": 2,
      "byteOffset": 64224,
      "componentType": 5126,
      "count": 20,
      "max": [
        0,
        0.46343407034873962,
        -0.24104496836662292
      ],
      "min": [
        0,
        -0.97051399946212769,
        -0.99947458505630493
      ],
      "type": "VEC3"
    },
    {
      "bufferView": 3,
      "byteOffset": 42656,
      "componentType": 5126,
      "count": 20,
      "max": [
        1,
        1.316075668000849e-06,
        6.8828876464976929e-07,
        1
      ],
      "min": [
        1,
        0,
        0,
        1
      ],
      "type": "VEC4"
    },
    {
      "bufferView": 1,
      "byteOffset": 63984,
      "componentType": 5126,
      "count": 20,
      "max": [
        0.99282592535018921,
        0.63057553768157959
      ],
      "min": [
        0.87997156381607056,
        0.44141721725463867
      ],
      "type": "VEC2"
    },
    {
      "bufferView": 1,
      "byteOffset": 64144,
      "componentType": 5126,
      "count": 20,
      "max": [
        0.99282592535018921,
        0.63057553768157959
      ],
      "min": [
        0.87997156381607056,
        0.44141721725463867
      ],
      "type": "VEC2"
    },
    {
      "bufferView": 1,
      "byteOffset": 64304,
      "componentType": 5126,
      "count": 20,
      "max": [
        0.99282592535018921,
        0.63057553768157959
      ],
      "min": [
        0.87997156381607056,
        0.44141721725463867
      ],
      "type": "VEC2"
    },
    {
      "bufferView": 0,
      "byteOffset": 18240,
      "componentType": 5125,
      "count": 30,
      "max": [
        19
      ],
      "min": [
        0
      ],
      "type": "SCALAR"
    }
  ],
  "asset": {
    "extras": {
      "author": "ion_omat (https://sketchfab.com/ion_omat)",
      "license": "CC-BY-4.0 (http://creativecommons.org/licenses/by/4.0/)",
      "source": "https://sketchfab.com/3d-models/arcade-machine-aeaadc92e09842078d464d619ff5864a",
      "title": "Arcade machine"
    },
    "generator": "Sketchfab-4.71.0",
    "version": "2.0"
  },
  "bufferViews": [
    {
      "buffer": 0,
      "byteLength": 18360,
      "byteOffset": 0,
      "name": "floatBufferViews",
      "target": 34963
    },
    {
      "buffer": 0,
      "byteLength": 64464,
      "byteOffset": 18360,
      "byteStride": 8,
      "name": "floatBufferViews",
      "target": 34962
    },
    {
      "buffer": 0,
      "byteLength": 64464,
      "byteOffset": 82824,
      "byteStride": 12,
      "name": "floatBufferViews",
      "target": 34962
    },
    {
      "buffer": 0,
      "byteLength": 42976,
      "byteOffset": 147288,
      "byteStride": 16,
      "name": "floatBufferViews",
      "target": 34962
    }
  ],
  "buffers": [
    {
      "byteLength": 190264,
      "uri": "scene.bin"
    }
  ],
  "extensionsRequired": [
    "KHR_materials_pbrSpecularGlossiness"
  ],
  "extensionsUsed": [
    "KHR_materials_pbrSpecularGlossiness"
  ],
  "images": [
    {
      "uri": "textures/Material_0_diffuse.png"
    },
    {
      "uri": "textures/Material_0_specularGlossiness.png"
    },
    {
      "uri": "textures/Material_0_normal.png"
    }
  ],
  "materials": [
    {
      "doubleSided": true,
      "extensions": {
        "KHR_materials_pbrSpecularGlossiness": {
          "diffuseFactor": [
            1,
            1,
            1,
            1
          ],
          "diffuseTexture": {
            "index": 0,
            "texCoord": 0
          },
          "glossinessFactor": 0.81535823169999999,
          "specularFactor": [
            1,
            1,
            1
          ],
          "specularGlossinessTexture": {
            "index": 1,
            "texCoord": 0
          }
        }
      },
      "name": "Material_0",
      "normalTexture": {
        "index": 2,
        "scale": 1,
        "texCoord": 0
      }
    }
  ],
  "meshes": [
    {
      "name": "arcade_machine_Material #0_0",
      "primitives": [
        {
          "attributes": {
            "NORMAL": 1,
            "POSITION": 0,
            "TANGENT": 2,
            "TEXCOORD_0": 3,
            "TEXCOORD_1": 4,
            "TEXCOORD_2": 5
          },
          "indices": 6,
          "material": 0,
          "mode": 4
        }
      ]
    },
    {
      "name": "tickets_Material #0_0",
      "primitives": [
        {
          "attributes": {
            "NORMAL": 8,
            "POSITION": 7,
            "TANGENT": 9,
            "TEXCOORD_0": 10,
            "TEXCOORD_1": 11,
            "TEXCOORD_2": 12
          },
          "indices": 13,
          "material": 0,
          "mode": 4
        }
      ]
    }
  ],
  "nodes": [
    {
      "children": [
        1
      ],
      "name": "RootNode (gltf orientation matrix)",
      "rotation": [
        -0.70710678118654746,
        -0,
        -0,
        0.70710678118654757
      ]
    },
    {
      "children": [
        2
      ],
      "name": "RootNode (model correction matrix)"
    },
    {
      "children": [
        3
      ],
      "matrix": [
        1,
        0,
        0,
        0,
        0,
        0,
        1,
        0,
        0,
        -1,
        0,
        0,
        0,
        0,
        0,
        1
      ],
      "name": "Low poly block.fbx"
    },
    {
      "children": [
        4,
        6
      ],
      "name": "RootNode"
    },
    {
      "children": [
        5
      ],
      "matrix": [
        1,
        0,
        0,
        0,
        0,
        -1,
        -1.1924880760967735e-08,
        0,
        0,
        1.1924880760967735e-08,
        -1,
        0,
        0,
        2.695220947265625,
        -12.909360885620117,
        1
      ],
      "name": "arcade_machine"
    },
    {
      "mesh": 0,
      "name": "arcade_machine_Material #0_0"
    },
    {
      "children": [
        7
      ],
      "matrix": [
        1,
        0,
        0,
        0,
        0,
        -1,
        -1.1924880760967735e-08,
        0,
        0,
        1.1924880760967735e-08,
        -1,
        0,
        -0.68839097023010254,
        46.399604797363281,
        34.96484375,
        1
      ],
      "name": "tickets"
    },
    {
      "mesh": 1,
      "name": "tickets_Material #0_0"
    }
  ],
  "samplers": [
    {
      "magFilter": 9729,
      "minFilter": 9987,
      "wrapS": 10497,
      "wrapT": 10497
    }
  ],
  "scene": 0,
  "scenes": [
    {
      "name": "OSG_Scene",
      "nodes": [
        0
      ]
    }
  ],
  "textures": [
    {
      "sampler": 0,
      "source": 0
    },
    {
      "sampler": 0,
      "source": 1
    },
    {
      "sampler": 0,
      "source": 2
    }
  ]
}

